<?xml version="1.0" encoding="utf-8"?>
<!-- Generator: Adobe Illustrator 24.1.1, SVG Export Plug-In . SVG Version: 6.00 Build 0)  -->
<svg version="1.1" xmlns="http://www.w3.org/2000/svg" xmlns:xlink="http://www.w3.org/1999/xlink" x="0px" y="0px"
	 viewBox="0 0 1366 768" style="enable-background:new 0 0 1366 768;" xml:space="preserve">
<style type="text/css">
	.st0{fill:#D0DEC5;}
	.st1{fill:#AFC1AC;}
</style>
<g id="Layer_2">
	<g>
		<path class="st0" d="M325.4,751.2c-22.7-24.4-24-67.2-53.7-82.3c-16.7-8.5-37.2-4.7-54.5,2.8s-32.9,18.4-50.7,24.5
			c-17.8,6-39.3,6.2-53.4-6.3c-10.9-9.7-15.1-24.9-16.5-39.4c-2-22,1.3-44.2,1-66.3c-0.3-27-6.1-54-16.9-78.7
			c-10.4-23.9-29.4-48.1-55.4-48.8c-18.9-0.5-35.6,11.7-49.3,24.6c-8.2,7.7-16.3,16.5-18.6,27.5c-1.2,5.8-0.7,11.8-0.2,17.7
			c5.2,61.9,11.7,123.7,19.3,185.3c2.5,20.6,5.2,41.3,11.8,60.9c1.5,4.6,3.5,9.4,7.2,12.5c3.2,2.7,7.5,3.8,11.6,4.7
			c35.4,7.7,72.1,4.2,108.3,2c65.5-3.9,131.3-3.4,196.7,1.7c16.9,1.3,77.4,7.9,81.9-17.3C369.1,768.9,345,772.4,325.4,751.2z"/>
	</g>
	<path class="st0" d="M690.5,798.5c-22.2,5.1-42.9-18.7-42.1-41.4s16.3-42.3,33.7-57c50.2-42.4,122.2-57.5,185.2-38.9
		c55.7,16.5,101.6,56.3,155.4,78.1c52.2,21.2,111.5,24.5,165.8,9.3s103.2-48.8,136.8-94.1c25.3-34.1,41.9-81.2,21.8-118.6
		c-10.9-20.4-28.4-31-51.3-44.1c-34.3-19.6-46.5-14.1-106.9-37.9c-36.8-14.5-52.1-24.4-62-41c-3-5-13.6-22.6-8-39.9
		c7.4-23.1,39.4-30,54.6-35.7c72.2-27.2,158.1-14.7,219.5,32c8.9,128.6,9.7,255.4,5.2,384.2c-0.4,10.2-1.3,21.7-9,28.4
		c-7.7,6.8-19.3,6.2-29.5,5.4c-35.7-2.8-71.7-3.2-107.5-1.2c-40.7,2.2-81.2,7.6-121.7,11.4c-125.1,11.9-251.1,9.7-376.5,1.6
		C732.2,797.7,711.8,793.6,690.5,798.5z"/>
	<path class="st0" d="M686.5,738c-5-11.2-17.3-17.7-29.4-19.4c-27.3-3.9-54.8,12.6-69.6,35.9c-14.7,23.3-18.4,52.2-16.6,79.7
		c11.2-13.1,29.7-16.1,45.9-21.9s33.3-9,50-13.4c5.5-1.4,11.2-3.1,15.2-7.2c3.4-3.4,5.1-8.1,6.7-12.6c2.1-5.8,4.1-11.5,6.2-17.3
		c2-5.5,4-11.3,2.8-17C696.6,739.1,692.1,736.6,686.5,738z"/>
</g>
<g id="Layer_1">
	<path class="st1" d="M456.1-15c99.1-17.3,203.6-2,293.4,43.2c50.1,25.2,98.2,62.6,116.3,115.7c16.5,48.2,5.9,100.9,6.1,151.8
		c0.1,51,17.4,109.5,64.7,128.4c29.3,11.7,62.6,4.9,92.4-5.4c34.3-11.9,67-28.3,101.4-40.1c19.7-6.7,40.5-12,61.2-9.6
		c20.7,2.4,41.3,13.6,50.2,32.4c23.7,50.2-45.9,111.1-19.2,159.8c10.8,19.6,34,28.7,56.1,32.6c19.4,3.4,39.6,3.8,58.5-1.8
		c37.8-11,65.7-44.8,79.1-81.7c13.5-37,14.6-77.2,14.2-116.5c-1.3-111.8-14.1-223.2-27-334.3c-3.2-27.3-7.1-56.5-25.6-76.9
		c-24.1-26.7-64.4-29.5-100.4-30.1c-244-4-488.2,6.2-731,30.7"/>
</g>
</svg>
