<?xml version="1.0" encoding="utf-8"?>
<!-- Generator: Adobe Illustrator 24.1.1, SVG Export Plug-In . SVG Version: 6.00 Build 0)  -->
<svg version="1.1" xmlns="http://www.w3.org/2000/svg" xmlns:xlink="http://www.w3.org/1999/xlink" x="0px" y="0px"
	 viewBox="0 0 1650 768" style="enable-background:new 0 0 1650 768;" xml:space="preserve">
<style type="text/css">
	.st0{fill:#D0DEC5;}
	.st1{fill:#AFC1AC;}
</style>
<g id="Layer_2">
	<g>
		<path class="st0" d="M397,751.2c-26.8-24.4-28.4-67.2-63.5-82.3c-19.8-8.5-44-4.7-64.4,2.8s-38.9,18.4-60,24.5
			c-21,6-46.5,6.2-63.2-6.3c-12.9-9.7-17.9-24.9-19.5-39.4c-2.4-22,1.5-44.2,1.2-66.3c-0.4-27-7.2-54-20-78.7
			c-12.3-23.9-34.8-48.1-65.5-48.8c-22.3-0.5-42.1,11.7-58.3,24.6c-9.7,7.7-19.3,16.5-22,27.5c-1.4,5.8-0.9,11.8-0.3,17.7
			c6.2,61.9,13.8,123.7,22.8,185.3c3,20.6,6.2,41.3,14,60.9c1.8,4.6,4.1,9.4,8.5,12.5c3.8,2.7,8.8,3.8,13.7,4.7
			c41.8,7.7,85.3,4.2,128,2c77.4-3.9,155.2-3.4,232.6,1.7c20,1.3,91.5,7.9,96.8-17.3C448.8,768.9,420.3,772.4,397,751.2z"/>
	</g>
	<path class="st0" d="M828.8,798.5c-26.2,5.1-50.7-18.7-49.8-41.4s19.3-42.3,39.9-57c59.4-42.4,144.5-57.5,219-38.9
		c65.9,16.5,120.1,56.3,183.7,78.1c61.8,21.2,131.8,24.5,196,9.3s122-48.8,161.8-94.1c30-34.1,49.5-81.2,25.8-118.6
		c-12.9-20.4-33.6-31-60.6-44.1c-40.6-19.6-55-14.1-126.3-37.9c-43.6-14.5-61.6-24.4-73.3-41c-3.5-5-16-22.6-9.5-39.9
		c8.8-23.1,46.6-30,64.6-35.7c85.4-27.2,186.9-14.7,259.5,32c10.5,128.6,11.5,255.4,6.1,384.2c-0.4,10.2-1.6,21.7-10.7,28.4
		c-9.2,6.8-22.8,6.2-34.9,5.4c-42.3-2.8-84.8-3.2-127.1-1.2c-48.1,2.2-96,7.6-144,11.4c-147.9,11.9-296.9,9.7-445.2,1.6
		C878,797.7,853.9,793.6,828.8,798.5z"/>
	<path class="st0" d="M824,738c-5.9-11.2-20.4-17.7-34.8-19.4c-32.3-3.9-64.8,12.6-82.2,35.9c-17.4,23.3-21.7,52.2-19.6,79.7
		c13.2-13.1,35.1-16.1,54.3-21.9c19.2-5.8,39.3-9,59.1-13.4c6.5-1.4,13.3-3.1,18-7.2c4-3.4,6-8.1,7.9-12.6
		c2.4-5.8,4.9-11.5,7.3-17.3c2.3-5.5,4.7-11.3,3.4-17C836,739.1,830.7,736.6,824,738z"/>
</g>
<g id="Layer_1">
	<path class="st1" d="M551.6-15c117.1-17.3,240.7-2,347,43.2c59.3,25.2,116.1,62.6,137.6,115.7c19.5,48.2,7,100.9,7.2,151.8
		s20.6,109.5,76.6,128.4c34.6,11.7,74.1,4.9,109.3-5.4c40.6-11.9,79.2-28.3,119.9-40.1c23.3-6.7,47.9-12,72.3-9.6
		s48.9,13.6,59.4,32.4c28.1,50.2-54.3,111.1-22.6,159.8c12.8,19.6,40.2,28.7,66.3,32.6c22.9,3.4,46.8,3.8,69.2-1.8
		c44.7-11,77.6-44.8,93.6-81.7c15.9-37,17.3-77.2,16.7-116.5c-1.5-111.8-16.7-223.2-31.9-334.3c-3.7-27.3-8.4-56.5-30.2-76.9
		c-28.5-26.7-76.2-29.5-118.8-30.1c-288.5-4-577.2,6.2-864.3,30.7"/>
</g>
</svg>
