<?xml version="1.0" encoding="utf-8"?>
<!-- Generator: Adobe Illustrator 24.1.1, SVG Export Plug-In . SVG Version: 6.00 Build 0)  -->
<svg version="1.1" xmlns="http://www.w3.org/2000/svg" xmlns:xlink="http://www.w3.org/1999/xlink" x="0px" y="0px"
	 viewBox="0 0 1800 768" style="enable-background:new 0 0 1800 768;" xml:space="preserve">
<style type="text/css">
	.st0{fill:#D0DEC5;}
	.st1{fill:#AFC1AC;}
</style>
<g id="Layer_2">
	<g>
		<path class="st0" d="M434.3,751.2c-29.3-24.4-31.1-67.2-69.5-82.3c-21.7-8.5-48.2-4.7-70.5,2.8s-42.6,18.4-65.7,24.5
			c-23,6-50.9,6.2-69.1-6.3c-14.1-9.7-19.6-24.9-21.3-39.4c-2.6-22,1.7-44.2,1.3-66.3c-0.4-27-7.9-54-21.8-78.7
			c-13.4-23.9-38-48.1-71.7-48.8c-24.4-0.5-46,11.7-63.8,24.6c-10.6,7.7-21.1,16.5-24.1,27.5c-1.6,5.8-1,11.8-0.3,17.7
			c6.8,61.9,15.1,123.7,24.9,185.3c3.3,20.6,6.8,41.3,15.3,60.9c2,4.6,4.5,9.4,9.4,12.5c4.2,2.7,9.7,3.8,15,4.7
			c45.8,7.7,93.3,4.2,140.1,2c84.8-3.9,169.9-3.4,254.6,1.7c21.9,1.3,100.2,7.9,106-17.3C491,768.9,459.7,772.4,434.3,751.2z"/>
	</g>
	<path class="st0" d="M906.9,798.5c-28.7,5.1-55.5-18.7-54.5-41.4s21.1-42.3,43.6-57c65-42.4,158.2-57.5,239.8-38.9
		c72.1,16.5,131.4,56.3,201.1,78.1c67.6,21.2,144.3,24.5,214.6,9.3c70.2-15.2,133.6-48.8,177.1-94.1c32.8-34.1,54.2-81.2,28.2-118.6
		c-14.2-20.4-36.7-31-66.4-44.1c-44.4-19.6-60.2-14.1-138.3-37.9c-47.7-14.5-67.4-24.4-80.2-41c-3.9-5-17.5-22.6-10.4-39.9
		c9.6-23.1,51-30,70.7-35.7c93.5-27.2,204.6-14.7,284.1,32c11.5,128.6,12.6,255.4,6.7,384.2c-0.5,10.2-1.7,21.7-11.7,28.4
		c-10,6.8-24.9,6.2-38.2,5.4c-46.3-2.8-92.8-3.2-139.1-1.2c-52.7,2.2-105.1,7.6-157.6,11.4c-161.9,11.9-325.1,9.7-487.3,1.6
		C960.8,797.7,934.5,793.6,906.9,798.5z"/>
	<path class="st0" d="M901.7,738c-6.5-11.2-22.4-17.7-38.1-19.4c-35.4-3.9-71,12.6-90,35.9c-19.1,23.3-23.8,52.2-21.5,79.7
		c14.5-13.1,38.4-16.1,59.4-21.9c21-5.8,43.1-9,64.7-13.4c7.1-1.4,14.5-3.1,19.7-7.2c4.4-3.4,6.6-8.1,8.7-12.6
		c2.7-5.8,5.4-11.5,8-17.3c2.5-5.5,5.1-11.3,3.7-17C914.8,739.1,909,736.6,901.7,738z"/>
</g>
<g id="Layer_1">
	<path class="st1" d="M603.5-15C731.8-32.3,867-17,983.4,28.2c64.9,25.2,127,62.6,150.6,115.7c21.4,48.2,7.7,100.9,7.9,151.8
		s22.6,109.5,83.8,128.4c37.9,11.7,81.1,4.9,119.7-5.4c44.4-11.9,86.7-28.3,131.2-40.1c25.5-6.7,52.4-12,79.2-9.6
		c26.8,2.4,53.5,13.6,65,32.4c30.7,50.2-59.5,111.1-24.8,159.8c14,19.6,44.1,28.7,72.6,32.6c25.1,3.4,51.3,3.8,75.7-1.8
		c48.9-11,85-44.8,102.4-81.7c17.4-37,18.9-77.2,18.3-116.5c-1.7-111.8-18.3-223.2-34.9-334.3c-4.1-27.3-9.2-56.5-33.1-76.9
		c-31.2-26.7-83.4-29.5-130-30.1c-315.8-4-631.9,6.2-946.1,30.7"/>
</g>
</svg>
