<?xml version="1.0" encoding="utf-8"?>
<!-- Generator: Adobe Illustrator 24.1.1, SVG Export Plug-In . SVG Version: 6.00 Build 0)  -->
<svg version="1.1" id="Layer_1" xmlns="http://www.w3.org/2000/svg" xmlns:xlink="http://www.w3.org/1999/xlink" x="0px" y="0px"
	 viewBox="0 0 1366 768" style="enable-background:new 0 0 1366 768;" xml:space="preserve">
<style type="text/css">
	.st0{fill:#AFC1AC;}
</style>
<path class="st0" d="M456.1-15c99.1-17.3,203.6-2,293.4,43.2c50.1,25.2,98.2,62.6,116.3,115.7c16.5,48.2,5.9,100.9,6.1,151.8
	c0.1,51,17.4,109.5,64.7,128.4c29.3,11.7,62.6,4.9,92.4-5.4c34.3-11.9,67-28.3,101.4-40.1c19.7-6.7,40.5-12,61.2-9.6
	c20.7,2.4,41.3,13.6,50.2,32.4c23.7,50.2-45.9,111.1-19.2,159.8c10.8,19.6,34,28.7,56.1,32.6c19.4,3.4,39.6,3.8,58.5-1.8
	c37.8-11,65.7-44.8,79.1-81.7c13.5-37,14.6-77.2,14.2-116.5c-1.3-111.8-14.1-223.2-27-334.3c-3.2-27.3-7.1-56.5-25.6-76.9
	c-24.1-26.7-64.4-29.5-100.4-30.1c-244-4-488.2,6.2-731,30.7"/>
</svg>
